<svg fill="#000000" xmlns="http://www.w3.org/2000/svg"  viewBox="0 0 64 64" width="64px" height="64px"><path d="M 32 2 C 21.523 2 13 10.523 13 21 L 15 21 C 15 11.626 22.626 4 32 4 C 41.374 4 49 11.626 49 21 L 51 21 C 51 10.523 42.477 2 32 2 z M 32 6 C 23.729 6 17 12.729 17 21 L 19 21 C 19 13.832 24.832 8 32 8 C 39.168 8 45 13.832 45 21 L 47 21 C 47 12.729 40.271 6 32 6 z M 32 10 C 25.935 10 21 14.935 21 21 L 23 21 C 23 16.038 27.038 12 32 12 C 36.962 12 41 16.038 41 21 L 43 21 C 43 14.935 38.065 10 32 10 z M 34.160156 18.435547 L 33.642578 20.367188 L 35.408203 20.841797 L 33.046875 22.205078 C 32.552875 21.701078 31.940234 21.323719 31.240234 21.136719 C 30.210234 20.861719 29.131078 21.003109 28.205078 21.537109 C 26.295078 22.640109 25.638234 25.091953 26.740234 27.001953 C 27.243234 27.873953 28.044047 28.498781 28.998047 28.800781 L 28.998047 31 L 26.998047 31 L 26.998047 33 L 28.998047 33 L 28.998047 35 L 30.998047 35 L 30.998047 33 L 32.998047 33 L 32.998047 31 L 30.998047 31 L 30.998047 28.912109 C 31.416047 28.827109 31.824078 28.683844 32.205078 28.464844 C 33.814078 27.535844 34.519875 25.6505 34.046875 23.9375 L 36.408203 22.572266 L 35.935547 24.339844 L 37.867188 24.857422 L 38.964844 20.759766 C 39.108844 20.225766 38.792766 19.676203 38.259766 19.533203 L 34.160156 18.435547 z M 8 21 C 7.74425 21 7.4884687 21.097469 7.2929688 21.292969 L 4.2929688 24.292969 L 5.7070312 25.707031 L 7 24.414062 L 7 27.142578 C 5.28 27.589578 4 29.142 4 31 C 4 33.206 5.794 35 8 35 C 10.206 35 12 33.206 12 31 C 12 29.142 10.72 27.589578 9 27.142578 L 9 24.414062 L 10.292969 25.707031 L 11.707031 24.292969 L 8.7070312 21.292969 C 8.5115313 21.097469 8.25575 21 8 21 z M 55.865234 22.005859 C 55.600102 22.02185 55.332781 22.064969 55.066406 22.136719 C 52.936406 22.707719 51.667281 24.905156 52.238281 27.035156 C 52.613281 28.437156 53.698 29.455031 55 29.832031 L 55 31.001953 L 53 31.001953 L 53 33.001953 L 55 33.001953 L 55 35.001953 L 57 35.001953 L 57 33.001953 L 59 33.001953 L 59 31.001953 L 57 31.001953 L 57 29.890625 C 57.046 29.880625 57.092672 29.875281 57.138672 29.863281 C 59.268672 29.292281 60.537797 27.094844 59.966797 24.964844 C 59.467172 23.100219 57.721164 21.893928 55.865234 22.005859 z M 30.201172 22.998047 C 30.375172 22.998047 30.550656 23.020406 30.722656 23.066406 C 31.238656 23.204406 31.6705 23.535047 31.9375 23.998047 C 32.4895 24.954047 32.160078 26.179469 31.205078 26.730469 C 30.743078 26.999469 30.2045 27.071641 29.6875 26.931641 C 29.1715 26.793641 28.741609 26.461047 28.474609 25.998047 C 27.922609 25.043047 28.251078 23.818578 29.205078 23.267578 C 29.513078 23.089578 29.854172 22.998047 30.201172 22.998047 z M 56.101562 24 C 56.984563 24 57.795156 24.589422 58.035156 25.482422 C 58.320156 26.547422 57.685141 27.647594 56.619141 27.933594 C 55.556141 28.219594 54.455922 27.583578 54.169922 26.517578 C 54.031922 26.001578 54.102141 25.463 54.369141 25 C 54.636141 24.538 55.068984 24.207359 55.583984 24.068359 C 55.756984 24.022359 55.930563 24 56.101562 24 z M 8 29 C 9.103 29 10 29.897 10 31 C 10 32.103 9.103 33 8 33 C 6.897 33 6 32.103 6 31 C 6 29.897 6.897 29 8 29 z M 8 37 C 5.794 37 4 38.794 4 41 C 4 42.031 4.403875 42.963828 5.046875 43.673828 C 3.725875 44.434828 2.7703125 45.777859 2.5703125 47.380859 L 2.0078125 51.876953 C 1.9688125 52.182953 2.0749688 52.489031 2.2929688 52.707031 L 4 54.414062 L 4 61 C 4 61.552 4.448 62 5 62 L 11 62 C 11.552 62 12 61.552 12 61 L 12 54.414062 L 13.707031 52.707031 C 13.925031 52.489031 14.031188 52.182953 13.992188 51.876953 L 13.429688 47.380859 C 13.229688 45.777859 12.274125 44.434828 10.953125 43.673828 C 11.597125 42.963828 12 42.031 12 41 C 12 38.794 10.206 37 8 37 z M 30 37 C 27.794 37 26 38.794 26 41 C 26 42.031 26.402875 42.963828 27.046875 43.673828 C 25.725875 44.434828 24.771312 45.777859 24.570312 47.380859 L 24.007812 51.876953 C 23.968812 52.182953 24.074969 52.489031 24.292969 52.707031 L 26 54.414062 L 26 61 C 26 61.552 26.448 62 27 62 L 37 62 C 37.347 62 37.668563 61.819437 37.851562 61.523438 C 38.033563 61.228437 38.048578 60.859781 37.892578 60.550781 L 34.6875 54.195312 L 36.175781 52.707031 C 36.393781 52.489031 36.499938 52.182953 36.460938 51.876953 L 35.898438 47.380859 C 35.728437 46.019859 35.006328 44.854453 33.986328 44.064453 C 33.989328 44.040453 34 44.023 34 44 L 34 41 C 34 38.794 32.206 37 30 37 z M 56 37 C 53.794 37 52 38.794 52 41 L 52 44 C 52 44.142 52.032938 44.276438 52.085938 44.398438 C 51.278937 45.169438 50.715359 46.202859 50.568359 47.380859 L 50.007812 51.876953 C 49.968812 52.182953 50.074969 52.489031 50.292969 52.707031 L 51.876953 54.291016 L 50.037109 60.724609 C 49.951109 61.026609 50.012172 61.350562 50.201172 61.601562 C 50.390172 61.852563 50.686 62 51 62 L 61 62 C 61.314 62 61.609828 61.852563 61.798828 61.601562 C 61.987828 61.350562 62.047938 61.026609 61.960938 60.724609 L 60.123047 54.291016 L 61.707031 52.707031 C 61.925031 52.489031 62.031187 52.182953 61.992188 51.876953 L 61.429688 47.380859 C 61.282688 46.202859 60.721062 45.170438 59.914062 44.398438 C 59.968063 44.276438 60 44.142 60 44 L 60 41 C 60 38.794 58.206 37 56 37 z M 8 39 C 9.103 39 10 39.897 10 41 C 10 42.103 9.103 43 8 43 C 6.897 43 6 42.103 6 41 C 6 39.897 6.897 39 8 39 z M 30 39 C 31.103 39 32 39.897 32 41 L 32 43 L 30 43 C 28.897 43 28 42.103 28 41 C 28 39.897 28.897 39 30 39 z M 56 39 C 57.103 39 58 39.897 58 41 L 58 43 L 54 43 L 54 41 C 54 39.897 54.897 39 56 39 z M 7.53125 45 L 8.46875 45 C 9.97875 45 11.258313 46.130906 11.445312 47.628906 L 11.947266 51.638672 L 10.292969 53.292969 C 10.104969 53.479969 10 53.735 10 54 L 10 60 L 6 60 L 6 54 C 6 53.735 5.8950312 53.479969 5.7070312 53.292969 L 4.0527344 51.638672 L 4.5546875 47.628906 C 4.7416875 46.130906 6.02125 45 7.53125 45 z M 29.53125 45 L 30 45 L 30.9375 45 C 32.4475 45 33.727063 46.130906 33.914062 47.628906 L 34.416016 51.638672 L 32.761719 53.292969 C 32.456719 53.597969 32.382172 54.064219 32.576172 54.449219 L 35.376953 60 L 28 60 L 28 54 C 28 53.735 27.895031 53.479969 27.707031 53.292969 L 26.052734 51.638672 L 26.554688 47.628906 C 26.742687 46.130906 28.02125 45 29.53125 45 z M 55.53125 45 L 56.46875 45 C 57.97875 45 59.258313 46.130906 59.445312 47.628906 L 59.947266 51.638672 L 58.292969 53.292969 C 58.035969 53.549969 57.938062 53.925391 58.039062 54.275391 L 59.673828 60 L 52.324219 60 L 53.960938 54.275391 C 54.060938 53.925391 53.963031 53.549969 53.707031 53.292969 L 52.052734 51.638672 L 52.554688 47.628906 C 52.741687 46.130906 54.02125 45 55.53125 45 z"/></svg>