<?xml version="1.0" encoding="UTF-8"?>
<svg xmlns="http://www.w3.org/2000/svg" xmlns:xlink="http://www.w3.org/1999/xlink" viewBox="0 0 64 64" width="64px" height="64px">
<g id="surface321158955">
<path style=" stroke:none;fill-rule:nonzero;fill:rgb(13.725491%,10.980392%,9.019608%);fill-opacity:1;" d="M 32 2 C 21.523438 2 13 10.523438 13 21 L 15 21 C 15 11.625 22.625 4 32 4 C 41.375 4 49 11.625 49 21 L 51 21 C 51 10.523438 42.476562 2 32 2 Z M 32 6 C 23.730469 6 17 12.730469 17 21 L 19 21 C 19 13.832031 24.832031 8 32 8 C 39.167969 8 45 13.832031 45 21 L 47 21 C 47 12.730469 40.269531 6 32 6 Z M 32 10 C 25.933594 10 21 14.933594 21 21 L 23 21 C 23 16.039062 27.039062 12 32 12 C 36.960938 12 41 16.039062 41 21 L 43 21 C 43 14.933594 38.066406 10 32 10 Z M 34.160156 18.433594 L 33.644531 20.367188 L 35.410156 20.84375 L 33.046875 22.207031 C 32.554688 21.699219 31.941406 21.324219 31.242188 21.136719 C 30.210938 20.863281 29.132812 21.003906 28.207031 21.539062 C 26.296875 22.640625 25.636719 25.09375 26.742188 27.003906 C 27.242188 27.875 28.042969 28.5 28.996094 28.800781 L 28.996094 31 L 26.996094 31 L 26.996094 33 L 28.996094 33 L 28.996094 35 L 30.996094 35 L 30.996094 33 L 32.996094 33 L 32.996094 31 L 30.996094 31 L 30.996094 28.914062 C 31.417969 28.828125 31.824219 28.683594 32.207031 28.464844 C 33.8125 27.535156 34.519531 25.652344 34.046875 23.9375 L 36.410156 22.574219 L 35.9375 24.339844 L 37.867188 24.859375 L 38.964844 20.761719 C 39.109375 20.226562 38.792969 19.675781 38.261719 19.535156 Z M 8 21 C 7.746094 21 7.488281 21.097656 7.292969 21.292969 L 4.292969 24.292969 L 5.707031 25.707031 L 7 24.414062 L 7 27.144531 C 5.28125 27.589844 4 29.140625 4 31 C 4 33.207031 5.792969 35 8 35 C 10.207031 35 12 33.207031 12 31 C 12 29.140625 10.71875 27.589844 9 27.144531 L 9 24.414062 L 10.292969 25.707031 L 11.707031 24.292969 L 8.707031 21.292969 C 8.511719 21.097656 8.253906 21 8 21 Z M 55.867188 22.007812 C 55.601562 22.023438 55.332031 22.066406 55.066406 22.136719 C 52.9375 22.707031 51.667969 24.90625 52.238281 27.035156 C 52.613281 28.4375 53.699219 29.453125 55 29.832031 L 55 31.003906 L 53 31.003906 L 53 33.003906 L 55 33.003906 L 55 35.003906 L 57 35.003906 L 57 33.003906 L 59 33.003906 L 59 31.003906 L 57 31.003906 L 57 29.890625 C 57.046875 29.878906 57.09375 29.875 57.136719 29.863281 C 59.269531 29.292969 60.539062 27.09375 59.96875 24.964844 C 59.46875 23.101562 57.722656 21.894531 55.867188 22.007812 Z M 30.203125 22.996094 C 30.375 22.996094 30.550781 23.019531 30.722656 23.066406 C 31.238281 23.203125 31.671875 23.535156 31.9375 23.996094 C 32.488281 24.953125 32.160156 26.179688 31.207031 26.730469 C 30.742188 27 30.203125 27.070312 29.6875 26.929688 C 29.171875 26.792969 28.742188 26.460938 28.476562 25.996094 C 27.921875 25.042969 28.25 23.820312 29.207031 23.265625 C 29.511719 23.089844 29.855469 22.996094 30.203125 22.996094 Z M 56.101562 24 C 56.984375 24 57.796875 24.589844 58.035156 25.484375 C 58.320312 26.546875 57.683594 27.648438 56.617188 27.933594 C 55.554688 28.21875 54.457031 27.582031 54.167969 26.515625 C 54.03125 26 54.101562 25.464844 54.367188 25 C 54.636719 24.539062 55.070312 24.207031 55.582031 24.066406 C 55.757812 24.023438 55.929688 24 56.101562 24 Z M 8 29 C 9.101562 29 10 29.898438 10 31 C 10 32.101562 9.101562 33 8 33 C 6.898438 33 6 32.101562 6 31 C 6 29.898438 6.898438 29 8 29 Z M 8 37 C 5.792969 37 4 38.792969 4 41 C 4 42.03125 4.402344 42.964844 5.046875 43.671875 C 3.726562 44.433594 2.769531 45.777344 2.570312 47.382812 L 2.007812 51.875 C 1.96875 52.183594 2.074219 52.488281 2.292969 52.707031 L 4 54.414062 L 4 61 C 4 61.550781 4.449219 62 5 62 L 11 62 C 11.550781 62 12 61.550781 12 61 L 12 54.414062 L 13.707031 52.707031 C 13.925781 52.488281 14.03125 52.183594 13.992188 51.875 L 13.429688 47.382812 C 13.230469 45.777344 12.273438 44.433594 10.953125 43.671875 C 11.597656 42.964844 12 42.03125 12 41 C 12 38.792969 10.207031 37 8 37 Z M 30 37 C 27.792969 37 26 38.792969 26 41 C 26 42.03125 26.402344 42.964844 27.046875 43.671875 C 25.726562 44.433594 24.769531 45.777344 24.570312 47.382812 L 24.007812 51.875 C 23.96875 52.183594 24.074219 52.488281 24.292969 52.707031 L 26 54.414062 L 26 61 C 26 61.550781 26.449219 62 27 62 L 37 62 C 37.347656 62 37.667969 61.820312 37.851562 61.523438 C 38.035156 61.226562 38.046875 60.859375 37.894531 60.550781 L 34.6875 54.195312 L 36.175781 52.707031 C 36.394531 52.488281 36.5 52.183594 36.460938 51.875 L 35.898438 47.382812 C 35.726562 46.019531 35.007812 44.855469 33.988281 44.066406 C 33.988281 44.039062 34 44.023438 34 44 L 34 41 C 34 38.792969 32.207031 37 30 37 Z M 56 37 C 53.792969 37 52 38.792969 52 41 L 52 44 C 52 44.140625 52.03125 44.277344 52.085938 44.398438 C 51.277344 45.167969 50.714844 46.203125 50.570312 47.382812 L 50.007812 51.875 C 49.96875 52.183594 50.074219 52.488281 50.292969 52.707031 L 51.878906 54.289062 L 50.039062 60.722656 C 49.949219 61.027344 50.011719 61.351562 50.203125 61.601562 C 50.390625 61.851562 50.6875 62 51 62 L 61 62 C 61.3125 62 61.609375 61.851562 61.800781 61.601562 C 61.988281 61.351562 62.046875 61.027344 61.960938 60.722656 L 60.125 54.289062 L 61.707031 52.707031 C 61.925781 52.488281 62.03125 52.183594 61.992188 51.875 L 61.429688 47.382812 C 61.28125 46.203125 60.722656 45.171875 59.914062 44.398438 C 59.96875 44.277344 60 44.140625 60 44 L 60 41 C 60 38.792969 58.207031 37 56 37 Z M 8 39 C 9.101562 39 10 39.898438 10 41 C 10 42.101562 9.101562 43 8 43 C 6.898438 43 6 42.101562 6 41 C 6 39.898438 6.898438 39 8 39 Z M 30 39 C 31.101562 39 32 39.898438 32 41 L 32 43 L 30 43 C 28.898438 43 28 42.101562 28 41 C 28 39.898438 28.898438 39 30 39 Z M 56 39 C 57.101562 39 58 39.898438 58 41 L 58 43 L 54 43 L 54 41 C 54 39.898438 54.898438 39 56 39 Z M 7.53125 45 L 8.46875 45 C 9.980469 45 11.257812 46.132812 11.445312 47.628906 L 11.945312 51.636719 L 10.292969 53.292969 C 10.105469 53.480469 10 53.734375 10 54 L 10 60 L 6 60 L 6 54 C 6 53.734375 5.894531 53.480469 5.707031 53.292969 L 4.054688 51.636719 L 4.554688 47.628906 C 4.742188 46.132812 6.019531 45 7.53125 45 Z M 29.53125 45 L 30.9375 45 C 32.449219 45 33.726562 46.132812 33.914062 47.628906 L 34.414062 51.636719 L 32.761719 53.292969 C 32.457031 53.597656 32.382812 54.0625 32.574219 54.449219 L 35.375 60 L 28 60 L 28 54 C 28 53.734375 27.894531 53.480469 27.707031 53.292969 L 26.054688 51.636719 L 26.554688 47.628906 C 26.742188 46.132812 28.019531 45 29.53125 45 Z M 55.53125 45 L 56.46875 45 C 57.980469 45 59.257812 46.132812 59.445312 47.628906 L 59.945312 51.636719 L 58.292969 53.292969 C 58.035156 53.550781 57.9375 53.925781 58.039062 54.273438 L 59.671875 60 L 52.324219 60 L 53.960938 54.273438 C 54.0625 53.925781 53.964844 53.550781 53.707031 53.292969 L 52.050781 51.636719 L 52.554688 47.628906 C 52.742188 46.132812 54.019531 45 55.53125 45 Z M 55.53125 45 "/>
</g>
</svg>
